HIERARCHY
ROOT Root
{
	OFFSET 0.00 0.00 0.00
	CHANNELS 6 Xposition Yposition Zposition Xrotation Yrotation Zrotation
	JOINT L_Femur
	{
		OFFSET 4.56604 0.00000 0.00000
		CHANNELS 3 Xrotation Yrotation Zrotation
		JOINT L_Tibia
		{
			OFFSET 0.00000 -15.50034 0.00000
			CHANNELS 3 Xrotation Yrotation Zrotation
			JOINT L_Foot
			{
				OFFSET 0.00000 -15.64621 0.00000
				CHANNELS 3 Xrotation Yrotation Zrotation
				JOINT L_Toe
				{
					OFFSET 0.00000 -1.95275 7.28777
					CHANNELS 3 Xrotation Yrotation Zrotation
					End Site
					{
						OFFSET 0.00000 0.00000 2.95275
					}
				}
			}
			JOINT L_Cal
			{
				OFFSET 0.00000 -18.11020 0.00000
				CHANNELS 3 Xrotation Yrotation Zrotation
				JOINT L_Cal_End
				{
					OFFSET 0.00000 -2.04572 -1.18110
					CHANNELS 3 Xrotation Yrotation Zrotation
				}
			}
		}
	}
	JOINT R_Femur
	{
		OFFSET -4.56604 0.00000 0.00000
		CHANNELS 3 Xrotation Yrotation Zrotation
		JOINT R_Tibia
		{
			OFFSET 0.00000 -15.50034 0.00000
			CHANNELS 3 Xrotation Yrotation Zrotation
			JOINT R_Foot
			{
				OFFSET 0.00000 -15.64621 0.00000
				CHANNELS 3 Xrotation Yrotation Zrotation
				JOINT R_Toe
				{
					OFFSET 0.00000 -1.95275 7.28777
					CHANNELS 3 Xrotation Yrotation Zrotation
					End Site
					{
						OFFSET 0.00000 0.00000 2.95275
					}
				}
			}
			JOINT R_Cal
			{
				OFFSET 0.00000 -18.11020 0.00000
				CHANNELS 3 Xrotation Yrotation Zrotation
				JOINT R_Cal_End
				{
					OFFSET 0.00000 -2.04572 -1.18110
					CHANNELS 3 Xrotation Yrotation Zrotation
				}
			}
		}
	}
	JOINT LowerBack
	{
		OFFSET 0.00000 0.03937 0.00000
		CHANNELS 3 Xrotation Yrotation Zrotation
		JOINT Thorax
		{
			OFFSET 0.00000 14.13597 0.00000
			CHANNELS 3 Xrotation Yrotation Zrotation
			JOINT Neck
			{
				OFFSET 0.00000 5.22135 0.00000
				CHANNELS 3 Xrotation Yrotation Zrotation
				JOINT Head
				{
					OFFSET 0.00000 8.94618 0.00000
					CHANNELS 3 Xrotation Yrotation Zrotation
					End Site
					{
						OFFSET 0.00000 4.52755 0.00000
					}
				}
			}
			JOINT L_Collar
			{
				OFFSET 0.00000 5.22135 0.00000
				CHANNELS 3 Xrotation Yrotation Zrotation
				JOINT L_Humerus
				{
					OFFSET 9.57834 -0.00004 0.00000
					CHANNELS 3 Xrotation Yrotation Zrotation
					JOINT L_Elbow
					{
						OFFSET 8.88658 -0.00003 0.00000
						CHANNELS 3 Xrotation Yrotation Zrotation
						JOINT L_Wrist
						{
							OFFSET 10.82675 -0.00004 0.00000
							CHANNELS 3 Xrotation Yrotation Zrotation
						}
					}
				}
			}
			JOINT R_Collar
			{
				OFFSET 0.00000 5.22135 0.00000
				CHANNELS 3 Xrotation Yrotation Zrotation
				JOINT R_Humerus
				{
					OFFSET -9.57834 -0.00004 0.00000
					CHANNELS 3 Xrotation Yrotation Zrotation
					JOINT R_Elbow
					{
						OFFSET -8.88658 -0.00003 0.00000
						CHANNELS 3 Xrotation Yrotation Zrotation
						JOINT R_Wrist
						{
							OFFSET -10.82675 -0.00004 0.00000
							CHANNELS 3 Xrotation Yrotation Zrotation
						}
					}
				}
			}
		}
	}
}
MOTION
Frames: 15
Frame Time: 0.008333
 -17.2441 -0.6836 32.4549 168.7845 44.1547 -66.8748 -54.3400 20.2922 -0.5537 29.9518 -0.0000 0.0000 -22.0691 18.8652 -7.5845 26.3208 0.0000 0.0000 95.4413 -3.7425 -10.2355 0.0000 -0.0000 -0.0000 -64.9394 12.5712 -0.4376 39.5221 -0.0000 0.0000 -24.2166 -11.6018 13.2551 23.6651 -0.0000 -0.0000 106.3204 -1.9241 16.8266 0.0000 -0.0000 -0.0000 -41.8808 0.8481 -8.3078 28.3117 14.0845 9.3095 14.5988 -0.6958 -16.4867 12.5235 -1.5671 9.4446 66.2293 -10.4423 -1.5951 -30.4445 -20.0584 -60.3055 -0.0002 -38.0516 -0.0001 -0.0000 0.0000 -0.0000 44.8278 -3.0122 -14.0052 -18.3205 0.8583 70.0711 -0.0002 45.1884 0.0001 -0.0000 0.0000 -0.0000
 -17.2660 -0.6831 32.4849 168.7119 44.1578 -66.8161 -54.1271 20.3315 -0.5911 29.5090 -0.0000 0.0000 -21.8500 18.8065 -7.5285 26.5541 -0.0000 0.0000 95.4024 -3.7136 -10.1935 0.0000 -0.0000 -0.0000 -64.7779 12.5411 -0.4470 39.1387 0.0000 0.0000 -24.0563 -11.5384 13.1314 24.5508 -0.0000 -0.0000 105.9268 -1.8603 16.6770 0.0000 0.0000 0.0000 -41.9252 0.8009 -8.2843 28.2466 14.0251 9.3932 14.5519 -0.5159 -16.5296 12.3305 -1.6936 8.9776 66.1275 -10.7341 -1.5697 -30.9229 -20.1895 -60.1872 -0.0002 -38.1225 -0.0001 -0.0000 0.0000 -0.0000 44.3898 -2.5944 -14.4534 -18.7153 0.3951 69.9790 -0.0002 45.2827 0.0001 -0.0000 0.0000 -0.0000
 -17.2765 -0.6888 32.5081 168.6477 44.1915 -66.7664 -53.9137 20.3047 -0.6398 29.1539 -0.0000 0.0000 -21.7040 18.8785 -7.4736 25.5567 -0.0000 -0.0000 95.2891 -3.5731 -10.3385 0.0000 0.0000 -0.0000 -64.6124 12.6606 -0.4063 38.8719 -0.0000 0.0000 -23.9015 -11.6119 13.1117 24.3195 -0.0000 -0.0000 105.7414 -1.8749 16.7780 0.0000 0.0000 -0.0000 -42.0805 0.7656 -8.3020 28.2070 13.9768 9.4586 14.7231 -0.6938 -16.5450 11.8881 -1.4416 8.8183 66.2181 -10.9432 -1.3724 -31.5725 -20.3235 -60.1787 -0.0002 -38.2519 -0.0001 -0.0000 0.0000 -0.0000 44.2295 -2.0087 -14.7206 -18.8711 0.2227 69.5494 -0.0002 45.5035 0.0001 -0.0000 0.0000 -0.0000
 -17.3073 -0.6816 32.5248 168.5998 44.2301 -66.7349 -53.7932 20.3198 -0.6833 28.8993 -0.0000 0.0000 -21.6084 18.8995 -7.3637 25.6283 -0.0000 0.0000 94.9752 -3.4666 -10.3324 0.0000 0.0000 0.0000 -64.4730 12.7091 -0.4075 38.5750 -0.0000 -0.0000 -23.7948 -11.6725 13.0672 24.7298 -0.0000 -0.0000 105.6616 -1.8845 16.6971 0.0000 -0.0000 -0.0000 -42.1077 0.8916 -8.2130 28.1067 14.0264 9.4425 14.8436 -1.0142 -16.4415 11.5212 -1.3030 8.5758 65.9373 -11.2612 -0.9677 -31.7601 -20.7906 -59.8446 -0.0002 -38.3980 -0.0001 -0.0000 0.0000 -0.0000 43.9285 -1.6310 -14.8732 -19.4705 -0.7443 69.5917 -0.0002 45.5435 0.0001 -0.0000 0.0000 -0.0000
 -17.3294 -0.6894 32.5372 168.6240 44.2617 -66.7840 -53.6332 20.3713 -0.7127 28.5542 -0.0000 0.0000 -21.5256 18.8265 -7.3044 26.0556 0.0000 0.0000 95.1745 -3.3682 -10.2406 0.0000 0.0000 0.0000 -64.3971 12.8553 -0.3481 38.4217 -0.0000 0.0000 -23.7099 -11.8462 12.9993 24.9659 -0.0000 -0.0000 105.5965 -1.9781 16.7775 0.0000 -0.0000 -0.0000 -42.1767 0.8122 -8.2562 27.9692 13.9837 9.4989 14.8173 -0.9435 -16.4214 11.4873 -1.2781 8.4696 65.7047 -11.6081 -0.9048 -32.2025 -20.7734 -59.6502 -0.0002 -38.5276 -0.0001 -0.0000 0.0000 -0.0000 43.6919 -1.0777 -15.0516 -19.9668 -1.0785 69.1738 -0.0002 45.6317 0.0001 -0.0000 0.0000 -0.0000
 -17.3400 -0.6789 32.5421 168.5106 44.3206 -66.6704 -53.5668 20.4278 -0.7188 28.5684 -0.0000 0.0000 -21.4984 18.8456 -7.2082 24.4902 -0.0000 0.0000 95.3798 -3.4051 -10.2040 0.0000 -0.0000 -0.0000 -64.2551 12.9348 -0.3413 38.2469 -0.0000 0.0000 -23.7048 -11.8588 12.9919 25.3218 -0.0000 -0.0000 105.5128 -1.9135 16.6759 0.0000 -0.0000 -0.0000 -42.2738 0.8714 -8.2293 27.9049 14.0266 9.5360 15.0387 -1.3447 -16.3846 10.9482 -1.0126 8.4044 65.3415 -11.8109 -0.6085 -32.6114 -21.3608 -59.6215 -0.0002 -38.3768 -0.0001 -0.0000 0.0000 -0.0000 43.5040 -0.5375 -15.3199 -20.4902 -1.7293 68.9191 -0.0002 45.9350 0.0001 -0.0000 0.0000 -0.0000
 -17.3782 -0.6843 32.5400 168.5349 44.3797 -66.7282 -53.5261 20.4609 -0.7185 28.4542 0.0000 0.0000 -21.5301 18.8150 -7.0820 24.5024 -0.0000 -0.0000 95.8331 -3.3913 -9.9851 0.0000 -0.0000 -0.0000 -64.2359 13.0370 -0.2826 38.1978 -0.0000 -0.0000 -23.6163 -11.9479 12.9618 23.9678 0.0000 0.0000 105.5139 -2.0102 16.6092 0.0000 -0.0000 -0.0000 -42.2829 0.8254 -8.2444 27.8005 14.0057 9.5723 15.0032 -1.3760 -16.3027 10.7265 -1.0330 8.1255 65.2029 -12.2114 -0.3768 -33.1544 -21.2899 -59.3872 -0.0002 -38.6721 -0.0001 -0.0000 0.0000 -0.0000 43.0984 -0.0447 -15.5169 -21.0920 -1.9847 68.6163 -0.0002 45.8761 0.0001 -0.0000 0.0000 -0.0000
 -17.4048 -0.6828 32.5377 168.5690 44.4206 -66.7976 -53.4676 20.5125 -0.7309 28.3106 -0.0000 0.0000 -21.5766 18.7559 -6.9554 24.1316 0.0000 0.0000 96.1663 -3.3031 -9.8607 0.0000 0.0000 0.0000 -64.2060 13.1418 -0.2378 38.1243 0.0000 0.0000 -23.6073 -12.0774 12.8623 23.8661 0.0000 0.0000 105.4558 -1.9867 16.5798 0.0000 -0.0000 -0.0000 -42.3342 0.7843 -8.2905 27.6506 14.0352 9.6262 15.0626 -1.6229 -16.1793 10.3913 -0.8853 8.0818 64.8369 -12.4060 -0.2576 -33.9678 -21.2129 -59.4347 -0.0002 -38.6761 -0.0001 -0.0000 0.0000 -0.0000 42.8065 0.4919 -15.6069 -21.7122 -2.3758 68.2747 -0.0002 45.7765 0.0001 -0.0000 0.0000 -0.0000
 -17.4122 -0.6925 32.5373 168.6202 44.4831 -66.8621 -53.3673 20.6022 -0.7382 28.1795 -0.0000 -0.0000 -21.5485 18.6284 -6.8922 23.6020 -0.0000 -0.0000 96.1302 -3.3159 -9.7433 0.0000 0.0000 0.0000 -64.1009 13.4124 -0.1463 38.0259 -0.0000 -0.0000 -23.7078 -12.3620 12.5605 24.1231 0.0000 -0.0000 105.5125 -1.7550 16.8750 0.0000 0.0000 -0.0000 -42.4743 0.6763 -8.3811 27.4097 14.0240 9.7282 15.3498 -2.2622 -15.8720 9.8472 -0.4101 7.4153 64.6334 -12.6967 -0.0130 -34.5203 -21.6575 -59.3789 -0.0002 -38.5522 -0.0001 -0.0000 0.0000 -0.0000 42.2973 1.4453 -15.9762 -21.6838 -2.9898 67.8840 -0.0002 46.0517 0.0001 -0.0000 0.0000 -0.0000
 -17.4431 -0.6846 32.5277 168.6359 44.5660 -66.9073 -53.3555 20.5957 -0.7519 28.1776 0.0000 -0.0000 -21.6256 18.5909 -6.7069 23.1426 -0.0000 -0.0000 96.2367 -3.3089 -9.6658 0.0000 -0.0000 -0.0000 -64.0963 13.4188 -0.1382 38.0756 0.0000 0.0000 -23.6903 -12.3056 12.2874 22.8547 0.0000 -0.0000 105.5545 -1.7151 16.9678 0.0000 -0.0000 -0.0000 -42.5102 0.6780 -8.3731 27.3147 14.0341 9.7671 15.3089 -2.2986 -15.8289 9.7778 -0.4771 7.3507 64.3498 -13.0723 0.1697 -35.2194 -21.6120 -59.2436 -0.0002 -38.8278 -0.0001 -0.0000 0.0000 -0.0000 42.0815 1.9287 -16.0701 -22.4668 -3.2761 67.4804 -0.0002 46.1471 0.0001 -0.0000 0.0000 -0.0000
 -17.4629 -0.6672 32.5185 168.5896 44.6487 -66.8664 -53.2862 20.5124 -0.8155 28.1705 0.0000 0.0000 -21.6983 18.7251 -6.7011 23.5058 -0.0000 -0.0000 96.4480 -3.2091 -9.7594 0.0000 -0.0000 0.0000 -64.0261 13.6222 -0.0917 38.0412 0.0000 0.0000 -23.7983 -12.4682 12.1539 23.2351 0.0000 -0.0000 105.7128 -1.5584 16.9940 0.0000 0.0000 0.0000 -42.5259 0.6118 -8.3421 27.1041 13.9506 9.8482 15.4793 -2.5990 -15.6607 9.3673 -0.2350 6.5609 64.3827 -13.5306 0.2801 -36.6779 -20.6143 -59.5431 -0.0002 -38.9054 -0.0001 -0.0000 0.0000 -0.0000 41.7036 2.6469 -16.4637 -23.0390 -4.4601 67.3826 -0.0002 46.6446 0.0001 -0.0000 0.0000 -0.0000
 -17.4935 -0.6636 32.5091 168.5246 44.7162 -66.8097 -53.2860 20.6542 -0.7629 28.2158 -0.0000 0.0000 -21.7765 18.5859 -6.6187 23.9870 0.0000 -0.0000 96.4117 -2.9716 -9.5078 0.0000 -0.0000 -0.0000 -63.9917 13.7668 -0.0279 38.0263 -0.0000 0.0000 -23.8830 -12.5099 11.9417 23.2887 -0.0000 0.0000 106.0446 -1.6648 17.0042 0.0000 -0.0000 0.0000 -42.5644 0.5564 -8.4099 26.8607 13.9978 9.9010 15.5955 -2.8542 -15.5354 9.0485 0.0374 6.5648 63.6954 -13.7767 0.4700 -36.8096 -21.4380 -59.2531 -0.0002 -38.6383 -0.0001 -0.0000 0.0000 -0.0000 41.6643 3.4206 -16.6806 -23.5506 -4.9987 66.8381 -0.0002 47.2730 0.0001 -0.0000 0.0000 -0.0000
 -17.5234 -0.6651 32.5049 168.5756 44.7950 -66.8994 -53.2903 20.7200 -0.7391 28.2187 0.0000 0.0000 -21.7811 18.4910 -6.5650 23.9289 -0.0000 -0.0000 96.1866 -2.8322 -9.2139 0.0000 -0.0000 0.0000 -63.9511 13.9204 0.0303 38.0086 0.0000 0.0000 -23.8916 -12.6410 11.7051 22.5664 0.0000 0.0000 106.1241 -1.5942 17.1800 0.0000 -0.0000 -0.0000 -42.6011 0.6016 -8.3630 26.7456 13.9949 9.9076 15.7064 -3.1667 -15.3884 8.5461 0.2165 6.2679 63.9620 -14.2260 0.8024 -38.6931 -20.3096 -59.4968 -0.0002 -38.8531 -0.0001 -0.0000 0.0000 -0.0000 41.3210 3.9353 -16.7717 -24.4824 -6.2603 66.8073 -0.0002 47.8180 0.0001 -0.0000 0.0000 -0.0000
 -17.5568 -0.6591 32.5030 168.5729 44.8571 -66.9266 -53.2756 20.7469 -0.7322 28.1749 -0.0000 -0.0000 -21.7528 18.4470 -6.4704 22.4094 0.0000 0.0000 96.4292 -2.7149 -9.0968 0.0000 -0.0000 -0.0000 -63.9526 13.9586 0.0587 37.9997 -0.0000 0.0000 -23.7788 -12.6632 11.6909 21.2149 -0.0000 0.0000 105.9726 -1.5068 17.1560 0.0000 0.0000 -0.0000 -42.6363 0.5354 -8.4115 26.5765 14.0020 9.9703 15.7205 -3.2771 -15.3005 8.2230 0.3182 6.2138 63.4332 -14.4743 0.8767 -39.5307 -20.2473 -59.4829 -0.0002 -38.9020 -0.0001 -0.0000 0.0000 -0.0000 41.0590 4.4573 -16.8577 -25.3791 -6.6799 66.3268 -0.0002 48.0725 0.0001 -0.0000 0.0000 -0.0000
 -17.5838 -0.6587 32.5006 168.6194 44.9373 -67.0028 -53.2463 20.7615 -0.7354 28.1312 -0.0000 -0.0000 -21.7596 18.3911 -6.4385 24.0614 0.0000 0.0000 96.4250 -2.7125 -8.8745 0.0000 -0.0000 0.0000 -63.9414 14.1080 0.1120 38.0389 -0.0000 -0.0000 -23.8232 -12.8008 11.4991 21.9665 0.0000 0.0000 105.9197 -1.5240 17.2877 0.0000 0.0000 0.0000 -42.6839 0.5403 -8.4241 26.4023 14.0344 9.9956 15.7563 -3.5955 -15.0527 7.8209 0.4921 5.9132 63.3621 -14.7145 1.2370 -41.1680 -19.4673 -59.9100 -0.0002 -38.9385 -0.0001 -0.0000 0.0000 -0.0000 40.9538 4.9402 -17.0342 -26.4440 -7.9813 66.3187 -0.0002 48.8062 0.0001 -0.0000 0.0000 -0.0000
